<?xml version="1.0" encoding="UTF-8"?>
<svg width="600px" height="330px" viewBox="0 0 600 330" version="1.1" xmlns="http://www.w3.org/2000/svg" xmlns:xlink="http://www.w3.org/1999/xlink">
    <title>ховер</title>
    <g id="LK" stroke="none" stroke-width="1" fill="none" fill-rule="evenodd">
        <g id="ховер" fill-rule="nonzero">
            <rect id="Mask" fill="#000000" x="0" y="0" width="600" height="330" rx="30"></rect>
            <g id="Group" transform="translate(108.000000, 98.000000)" fill="#FFFFFF">
                <path d="M191.236491,0.249987985 C174.113635,0.240898513 158.671754,10.5685999 152.112825,26.4163424 C145.553897,42.264085 149.169912,60.5101465 161.274388,72.6447022 C173.378865,84.7792579 191.587438,88.4120173 207.407767,81.8486887 C223.228095,75.2853601 233.54386,59.8188019 233.54386,42.6625 C233.54386,19.247507 214.605838,0.262421746 191.236491,0.249987985 Z" id="Path"></path>
                <path d="M96.7185966,0.25 C84.6883239,0.24216439 73.4421891,6.23045107 66.7171929,16.225 C57.8511657,3.04060966 41.4454446,-2.81655546 26.2561348,1.7796064 C11.0668251,6.37576825 0.639292437,20.3524581 0.538947369,36.25 L0.538947369,36.25 L0.538947369,36.4525 C0.541125192,36.4899682 0.541125192,36.5275318 0.538947369,36.565 L0.538947369,36.565 L0.538947369,82.5775 L12.9122807,82.5775 L12.9122807,36.25 C12.9618894,23.0780087 23.6592992,12.4402944 36.805614,12.49 C49.951929,12.5397056 60.5689071,23.2580087 60.5192982,36.43 L60.5192982,36.43 L60.5192982,82.5775 L72.8926317,82.5775 L72.8926317,36.43 C73.287819,23.5369831 83.8334172,13.290306 96.7073685,13.290306 C109.58132,13.290306 120.126918,23.5369831 120.522105,36.43 L120.522105,82.5775 L132.895439,82.5775 L132.895439,36.25 L132.895439,36.25 C132.771909,16.3226299 116.607501,0.237238141 96.7185966,0.25 Z" id="Path"></path>
                <path d="M285.462456,0.25 C265.669949,0.37279711 249.655189,16.4188359 249.532632,36.25 L249.532632,36.25 L249.532632,36.565 L249.532632,36.565 L249.532632,82.5775 L261.905965,82.5775 L261.905965,36.25 C262.053263,23.1973991 272.636621,12.6835745 285.664561,12.6475 L286.383158,12.6475 L286.383158,0.25 L285.462456,0.25 L285.462456,0.25 Z" id="Path"></path>
                <path d="M339.604212,0.3625 C318.799485,0.363901354 301.079973,15.5131365 297.804982,36.0986053 C294.529991,56.6840743 306.670524,76.6023895 326.443743,83.0846743 C346.216965,89.5669594 367.76031,80.6912809 377.263158,62.1475 L366.439299,56.1625 C360.428277,68.1181768 347.237268,74.6348614 334.11174,72.1331113 C320.986212,69.6313609 311.10465,58.7170003 309.894738,45.385 L381.754386,45.385 C381.754386,44.5075 381.889134,43.6525 381.889134,42.775 C381.89508,31.5324724 377.443422,20.7480387 369.513462,12.7941517 C361.583502,4.84026472 350.824824,0.368465788 339.604212,0.3625 Z M311.017545,33.73 C314.943558,21.2276776 326.511972,12.7234265 339.592983,12.7234265 C352.673994,12.7234265 364.242405,21.2276776 368.168421,33.73 L311.017545,33.73 Z" id="Shape"></path>
                <path d="M8.19649122,138.6925 C5.7371325,137.366977 3.68101959,135.400137 2.24561404,133 C-0.657693798,127.879294 -0.657693798,121.605706 2.24561404,116.485 C3.63512961,113.97432 5.69595618,111.901676 8.19649122,110.5 C10.8387836,109.080074 13.7992301,108.359815 16.797193,108.4075 C19.7799964,108.36748 22.7240382,109.087508 25.3529825,110.5 C27.8888202,111.849995 29.9968863,113.884238 31.4385966,116.3725 C34.3396665,121.533894 34.3396665,127.838606 31.4385966,133 C30.0074952,135.428681 27.9422428,137.420175 25.4652632,138.76 C22.8363189,140.172492 19.8922771,140.89252 16.9094737,140.8525 C13.8676703,140.898841 10.8657858,140.154656 8.19649122,138.6925 L8.19649122,138.6925 Z M23.0175439,135.25 C24.8602036,134.179146 26.3747092,132.622773 27.3964912,130.75 C29.5223767,126.891974 29.5223767,122.210526 27.3964912,118.3525 C26.3546978,116.535587 24.8415584,115.035042 23.0175439,114.01 C21.1203685,112.94112 18.973412,112.397508 16.797193,112.435 C14.6001836,112.402623 12.4328046,112.945526 10.5094737,114.01 C8.63288442,115.003127 7.07563713,116.508806 6.01824561,118.3525 C3.86208264,122.202652 3.86208264,126.899848 6.01824561,130.75 C7.07907726,132.596713 8.63491332,134.108821 10.5094737,135.115 C12.4328046,136.179474 14.6001836,136.722378 16.797193,136.69 C18.9611756,136.768779 21.1073823,136.271936 23.0175439,135.25 L23.0175439,135.25 Z" id="Shape"></path>
                <path d="M76.9347369,140.425 L70.1978946,130.7275 C69.3670176,130.7275 68.6933334,130.7275 68.2217544,130.7275 L60.3621054,130.7275 L60.3621054,140.425 L55.8708771,140.425 L55.8708771,108.925 L68.1543861,108.925 C71.6083167,108.740202 75.0174993,109.775306 77.7880701,111.85 C80.144058,113.85155 81.4384317,116.836087 81.291228,119.9275 C81.3528354,122.141508 80.7249492,124.31981 79.4947368,126.16 C78.216798,127.917422 76.4167869,129.224782 74.3522808,129.895 L81.8301753,140.4925 L76.9347369,140.425 Z M74.5319298,125.1475 C76.065015,123.834191 76.8960345,121.87748 76.7775438,119.86 C76.8958923,117.855481 76.063608,115.91247 74.5319298,114.6175 C72.6352311,113.277092 70.335063,112.633376 68.0196492,112.795 L60.3621054,112.795 L60.3621054,126.9925 L68.0196492,126.9925 C70.3387041,127.157037 72.6422412,126.50442 74.5319298,125.1475 L74.5319298,125.1475 Z" id="Shape"></path>
                <polygon id="Path" points="104.061754 108.8575 108.552982 108.8575 108.552982 140.3575 104.061754 140.3575"></polygon>
                <path d="M155.329123,124.4725 L159.663158,124.4725 L159.663158,136.78 C158.046331,138.104316 156.195153,139.111858 154.206316,139.75 C152.121026,140.445014 149.936561,140.794603 147.738947,140.785 C144.771311,140.817398 141.843658,140.0976 139.22807,138.6925 C136.717534,137.380797 134.607198,135.414041 133.12,133 C130.21362,127.85604 130.21362,121.56146 133.12,116.4175 C134.56214,113.910307 136.678673,111.859809 139.22807,110.5 C144.05812,108.06591 149.683413,107.764112 154.745263,109.6675 C156.754073,110.459987 158.552577,111.707537 160,113.3125 L157.192982,116.17 C154.756795,113.777289 151.464212,112.464168 148.053333,112.525 C145.80194,112.492926 143.578422,113.026685 141.585965,114.0775 C139.7124,115.064532 138.155465,116.562109 137.094737,118.3975 C136.003247,120.298491 135.444618,122.459633 135.477895,124.6525 C135.432013,126.782595 135.951209,128.886727 136.982456,130.75 C138.025165,132.645009 139.582369,134.205255 141.473684,135.25 C143.443648,136.319788 145.655747,136.862268 147.896141,136.825 C150.49602,136.885099 153.056566,136.181138 155.261754,134.8 L155.329123,124.4725 Z" id="Path"></path>
                <polygon id="Path" points="183.73614 108.8575 188.227368 108.8575 188.227368 140.3575 183.73614 140.3575"></polygon>
                <polygon id="Path" points="240.280702 108.8575 240.280702 140.3575 236.597895 140.3575 217.689825 116.89 217.689825 140.425 213.198596 140.425 213.198596 108.925 216.903859 108.925 235.789474 132.415 235.789474 108.8575"></polygon>
                <path d="M285.192983,132.5275 L268.463158,132.5275 L265.004912,140.425 L260.491228,140.425 L274.773333,108.925 L279.264561,108.925 L293.569123,140.425 L288.853333,140.425 L285.192983,132.5275 Z M283.621053,128.9275 L276.88421,113.47 L270.147368,128.9275 L283.621053,128.9275 Z" id="Shape"></path>
                <polygon id="Path" points="313.644912 108.8575 318.13614 108.8575 318.13614 136.51 335.180352 136.51 335.180352 140.425 313.622457 140.425"></polygon>
                <path d="M357.883509,139.75 C355.962528,139.182733 354.185757,138.208204 352.673685,136.8925 L354.335439,133.3825 C355.693563,134.550694 357.264408,135.444616 358.961403,136.015 C360.811569,136.686854 362.764704,137.02951 364.732632,137.0275 C366.773829,137.168616 368.811537,136.707086 370.593684,135.7 C371.811087,134.932553 372.542583,133.586016 372.524913,132.145 C372.570063,131.155784 372.18507,130.19552 371.469474,129.5125 C370.724625,128.810765 369.835518,128.280867 368.864562,127.96 C367.831578,127.6 366.371931,127.195 364.373334,126.745 C362.42952,126.30022 360.516696,125.72901 358.647018,125.035 C357.204579,124.460374 355.919172,123.550349 354.896841,122.38 C353.80251,121.031692 353.249946,119.322624 353.347368,117.5875 C353.338938,115.989764 353.799693,114.424828 354.672282,113.0875 C355.676661,111.631459 357.080655,110.498255 358.714386,109.825 C360.849267,108.948211 363.145203,108.534135 365.451228,108.61 C367.308393,108.612299 369.15753,108.85429 370.952982,109.33 C372.601971,109.749286 374.166747,110.449483 375.578946,111.4 L374.141754,115 C371.551275,113.359348 368.560317,112.4642 365.496141,112.4125 C363.486267,112.271956 361.483134,112.767815 359.769825,113.83 C358.560372,114.623413 357.840186,115.981704 357.861054,117.43 C357.824658,118.422184 358.21758,119.381799 358.938948,120.0625 C359.707266,120.772634 360.618459,121.309676 361.611228,121.6375 C363.039402,122.124362 364.493883,122.530008 365.96772,122.8525 C367.90791,123.283035 369.814236,123.854546 371.671578,124.5625 C373.101783,125.126544 374.378964,126.020775 375.399297,127.1725 C376.485339,128.49904 377.037912,130.184075 376.948773,131.8975 C376.95321,133.49793 376.484364,135.063809 375.601404,136.3975 C374.582586,137.861946 373.152135,138.989746 371.491929,139.6375 C369.352446,140.49633 367.058757,140.90234 364.755087,140.83 C362.421018,140.849079 360.099642,140.484231 357.883509,139.75 Z" id="Path"></path>
            </g>
        </g>
    </g>
</svg>